<svg xmlns="http://www.w3.org/2000/svg" width="568" height="742" viewBox="0 0 568 742" version="1.1"><path d="M 68.891 38.007 C 49.158 44.545, 27.121 53.076, 13.250 59.548 L 4 63.863 4 86.859 L 4 109.855 17.250 103.534 C 32.461 96.277, 52.875 87.618, 64.500 83.492 C 68.900 81.930, 72.613 80.580, 72.751 80.491 C 72.890 80.403, 74.587 74.519, 76.523 67.415 C 78.458 60.312, 81.655 49.634, 83.625 43.687 C 85.595 37.740, 87.048 32.716, 86.854 32.524 C 86.659 32.331, 78.576 34.799, 68.891 38.007 M 51.459 165.361 C 27.534 189.796, 11.800 225.288, 4.627 271 C 0.836 295.156, 0.500 303.432, 0.500 372.500 C 0.500 433.023, 0.698 441.764, 2.298 452 C 10.009 501.319, 30.864 546.958, 65.585 590.500 C 76.794 604.555, 109.098 636.906, 124 648.998 C 157.807 676.429, 192.884 698.694, 234.835 719.350 C 262.244 732.845, 282.616 741.340, 287.471 741.300 C 290.313 741.276, 296.458 739.009, 308.328 733.603 C 367.617 706.603, 414.208 677.588, 453.180 643.391 L 463.240 634.564 450.870 632.860 C 444.067 631.922, 432.775 629.995, 425.779 628.578 C 418.782 627.160, 412.470 626, 411.753 626 C 411.036 626, 402.136 631.232, 391.975 637.626 C 353.638 661.752, 302.888 692, 300.747 692 C 299.780 692, 302.265 685.422, 306.901 675.708 C 317.371 653.771, 335.905 632.188, 359.929 613.956 L 363.280 611.413 351.890 607.064 C 345.626 604.673, 336.723 600.979, 332.106 598.856 L 323.711 594.996 319.412 598.518 C 314.450 602.584, 302.157 615.899, 295.374 624.552 C 283.936 639.145, 270.594 662.522, 264.014 679.500 C 262.735 682.800, 261.361 685.875, 260.961 686.333 C 260.061 687.364, 232.970 674.085, 232.274 672.272 C 231.509 670.277, 238.473 650.865, 244.390 638.500 C 253.911 618.603, 265.710 601.601, 281.263 585.364 L 289.056 577.229 278.778 570.963 C 273.125 567.516, 265.700 562.764, 262.277 560.401 L 256.055 556.105 248.603 564.303 C 227.771 587.219, 211.205 612.073, 198.467 639.517 C 196.046 644.733, 193.785 649, 193.441 649 C 193.098 649, 186.132 644.233, 177.960 638.406 L 163.103 627.812 165.103 622.656 C 175.489 595.869, 195.701 564.850, 217.700 541.939 L 225.920 533.379 216.710 525.252 C 211.645 520.783, 204.622 514.522, 201.105 511.340 L 194.709 505.553 184.354 516.343 C 164.801 536.718, 145.149 565.969, 135.747 588.691 C 133.411 594.336, 131.126 598.965, 130.668 598.977 C 129.576 599.007, 108.467 577.742, 107.155 575.290 C 105.730 572.628, 109.515 561.672, 117.446 545.500 C 127.565 524.867, 139.913 507.687, 158.965 487.732 L 169.055 477.164 160.750 466.832 C 156.183 461.149, 150.277 453.457, 147.626 449.738 L 142.807 442.975 137.950 447.042 C 125.478 457.484, 104.189 482.191, 94.042 498 C 88.193 507.112, 79.995 523.124, 78.041 529.250 C 77.383 531.313, 76.542 532.997, 76.172 532.993 C 75.128 532.983, 66.638 517.439, 62.543 508.039 C 58.131 497.912, 58.190 497.322, 64.998 483.164 C 76.172 459.932, 89.447 441.352, 108.402 422.414 L 121.500 409.328 118.182 403.414 C 106.751 383.036, 92.184 349.710, 84.919 327.310 C 83.101 321.706, 81.251 317.345, 80.807 317.619 C 80.363 317.894, 80 335.797, 80 357.404 C 80 395.117, 79.922 396.761, 78.045 398.459 C 75.398 400.855, 61.323 418.977, 55.895 426.979 C 53.478 430.542, 49.635 437.032, 47.356 441.402 L 43.213 449.346 42.567 439.923 C 42.211 434.740, 41.826 403.275, 41.710 370 C 41.523 316.118, 41.700 308.078, 43.324 296.500 C 46.769 271.952, 52.290 251.216, 59.682 235.062 L 63.142 227.500 62.061 205.666 C 61.466 193.657, 61.278 177.570, 61.644 169.916 C 62.009 162.262, 61.929 156, 61.466 156 C 61.003 156, 56.500 160.212, 51.459 165.361" stroke="none" fill="#9e2c5b" fill-rule="evenodd"/><path d="M 450 7.624 C 444.225 11.259, 438.948 14.748, 438.274 15.378 C 437.321 16.268, 439.597 20.482, 448.472 34.262 L 459.897 52 438.448 52 L 417 52 417 66.500 L 417 81 438 81 C 449.550 81, 459 81.233, 459 81.517 C 459 81.802, 454.027 89.744, 447.950 99.167 C 441.872 108.590, 437.260 116.622, 437.700 117.015 C 438.140 117.409, 443.636 120.964, 449.914 124.916 C 459.093 130.695, 461.557 131.847, 462.501 130.801 C 463.146 130.085, 468.537 121.850, 474.480 112.500 C 480.423 103.150, 485.614 95.130, 486.015 94.677 C 486.417 94.224, 492.263 102.437, 499.005 112.927 C 505.748 123.417, 511.443 132, 511.660 132 C 512.384 132, 536 116.809, 536 116.344 C 536 116.093, 531.026 108.150, 524.946 98.693 L 513.892 81.500 534.946 81.230 L 556 80.960 556 66.480 L 556 52 535 52 C 523.450 52, 514 51.767, 514 51.483 C 514 51.198, 518.950 43.291, 525 33.911 C 531.050 24.530, 535.979 16.550, 535.954 16.178 C 535.888 15.193, 514.066 1.765, 512.298 1.621 C 511.395 1.548, 506.145 8.738, 499.031 19.788 C 492.555 29.847, 487.074 38.259, 486.851 38.483 C 486.627 38.706, 481.057 30.386, 474.472 19.994 C 467.888 9.601, 462.050 1.080, 461.500 1.057 C 460.950 1.035, 455.775 3.990, 450 7.624 M 249.500 4.057 C 194.932 7.819, 142.863 16.513, 96.393 29.623 L 87.287 32.192 82.653 46.846 C 77.234 63.987, 72.909 80, 73.698 80 C 74.003 80, 81.058 77.801, 89.376 75.112 C 176.803 46.859, 285.109 37.513, 385.250 49.582 L 391 50.275 391 29.276 L 391 8.276 384.250 7.568 C 353.797 4.372, 343.292 3.838, 304.500 3.513 C 281.400 3.319, 256.650 3.564, 249.500 4.057 M 199.500 97.889 C 173.043 102.735, 139.864 114.015, 104.461 130.201 C 89.170 137.192, 80.245 142.191, 69.405 149.833 L 62.310 154.835 61.650 170.167 C 61.288 178.600, 61.432 193.600, 61.972 203.500 C 62.511 213.400, 62.963 222.809, 62.976 224.410 C 62.997 226.927, 63.656 226.228, 67.867 219.222 C 86.281 188.583, 109.738 169.816, 151 152.710 C 201.570 131.746, 227.046 127.549, 246.653 136.952 C 254.606 140.767, 263.648 149.924, 261.399 151.887 C 260.904 152.318, 239.350 161.798, 213.500 172.954 C 187.650 184.110, 161.280 195.886, 154.899 199.122 C 115.635 219.039, 95.043 241.718, 86.552 274.396 C 83.893 284.629, 81 303.943, 81 311.457 C 81 316.446, 89.307 341.462, 97.211 360.274 C 102.255 372.281, 119.237 406.631, 121.005 408.402 C 121.539 408.938, 124.665 407.065, 128.702 403.790 C 146.908 389.021, 165.268 376.724, 204.500 353.024 C 273.134 311.563, 322.683 287.704, 459 230.475 C 509.772 209.160, 539.767 196.152, 560.250 186.566 L 568 182.939 568 160.470 C 568 148.111, 567.767 138, 567.483 138 C 567.198 138, 555.611 143.235, 541.733 149.633 C 510.594 163.988, 465.182 184.241, 412 207.490 C 277.861 266.132, 216.925 297.659, 142.500 346.923 C 132.050 353.840, 123.163 359.650, 122.750 359.833 C 121.636 360.329, 121.862 326.324, 123.065 312.500 C 126.717 270.530, 140.172 250.434, 177 231.949 C 181.675 229.602, 231.850 207.763, 288.500 183.418 L 391.500 139.153 391.770 118.077 C 391.918 106.485, 391.766 97, 391.431 97 C 391.097 97, 370.335 105.812, 345.294 116.583 C 320.254 127.354, 299.442 135.791, 299.045 135.333 C 298.649 134.875, 296.203 131.254, 293.609 127.286 C 287.069 117.279, 278.451 109.760, 267.500 104.504 C 253.771 97.916, 248.263 96.800, 227.500 96.402 C 213.216 96.129, 207.435 96.436, 199.500 97.889 M 546.500 227.991 C 536.050 232.812, 504.100 246.977, 475.500 259.470 C 329.205 323.373, 264.533 356.023, 202.500 397.293 C 179.669 412.483, 143 440.610, 143 442.934 C 143 443.873, 161.160 467.843, 165.626 472.799 L 169.500 477.098 177.500 469.994 C 195.532 453.982, 220.985 435.540, 247.500 419.276 C 291.804 392.100, 340.838 367.827, 444.031 321.988 C 504.578 295.093, 527.894 284.499, 549.750 273.955 L 568 265.150 568 242.075 C 568 224.222, 567.717 219.026, 566.750 219.113 C 566.063 219.175, 556.950 223.170, 546.500 227.991 M 550 311.919 C 531.424 320.690, 504.282 332.892, 448 357.777 C 345.856 402.938, 291.692 431.164, 247.133 462.452 C 232.792 472.521, 212.318 488.911, 202.644 498.066 L 194.788 505.500 207.644 517.186 C 214.715 523.614, 221.774 529.863, 223.331 531.072 L 226.161 533.272 231.331 528.285 C 244.911 515.184, 263.465 500.687, 285 486.353 C 329.090 457.003, 373.338 434.693, 481 387.529 C 503.275 377.771, 531.962 365.060, 544.750 359.284 L 568 348.781 568 326.391 C 568 314.076, 567.663 304.029, 567.250 304.065 C 566.837 304.100, 559.075 307.635, 550 311.919 M 544 397.662 C 459.668 434.848, 433.585 446.749, 398.500 464.052 C 335.133 495.303, 293.226 521.868, 263 549.946 L 256.500 555.983 259.228 558.261 C 260.728 559.514, 268.046 564.295, 275.491 568.884 L 289.027 577.229 297.763 569.805 C 339.965 533.947, 386.945 508.741, 521.817 449.596 L 565.500 430.440 566.135 423.970 C 566.484 420.412, 567.097 410.863, 567.498 402.750 C 568.099 390.587, 567.987 388.016, 566.863 388.091 C 566.113 388.141, 555.825 392.448, 544 397.662 M 530.500 483.152 C 513.450 490.811, 488.925 501.843, 476 507.666 C 445.753 521.293, 398.007 544.849, 382 554.041 C 364.810 563.912, 346.482 576.161, 334.120 586.040 C 324.744 593.533, 323.911 594.462, 325.515 595.634 C 327.615 597.170, 347.716 605.698, 357.044 609.010 L 363.587 611.334 371.544 605.807 C 394.248 590.036, 420.597 575.702, 488 542.454 C 516.325 528.482, 541.525 516.026, 544 514.775 C 548.291 512.605, 548.695 512.013, 552.697 502 C 557.639 489.638, 562.291 473.930, 561.827 471.172 C 561.536 469.442, 558.045 470.777, 530.500 483.152 M 522.474 556.904 C 520.838 557.889, 510.950 563.786, 500.500 570.010 C 484.714 579.411, 443.805 604.796, 417.222 621.685 L 410.943 625.674 427.222 628.832 C 436.175 630.568, 447.897 632.534, 453.270 633.199 L 463.040 634.410 470.605 626.955 C 480.330 617.372, 493.566 602.117, 503.230 589.357 C 511.773 578.075, 526.445 556.111, 525.841 555.507 C 525.624 555.291, 524.109 555.920, 522.474 556.904" stroke="none" fill="#ce3e34" fill-rule="evenodd"/></svg>